<svg xmlns="http://www.w3.org/2000/svg" xmlns:xlink="http://www.w3.org/1999/xlink" width="70.433" height="108.265" viewBox="0 0 70.433 108.265">
  <defs>
    <filter id="Path_84" x="15.433" y="34.87" width="32.596" height="11.574" filterUnits="userSpaceOnUse">
      <feOffset dy="2" input="SourceAlpha"/>
      <feGaussianBlur stdDeviation="1" result="blur"/>
      <feFlood flood-opacity="0.161"/>
      <feComposite operator="in" in2="blur"/>
      <feComposite in="SourceGraphic"/>
    </filter>
    <filter id="Rectangle_44" x="18.433" y="10.143" width="22" height="22" filterUnits="userSpaceOnUse">
      <feOffset dy="3" input="SourceAlpha"/>
      <feGaussianBlur stdDeviation="3" result="blur-2"/>
      <feFlood flood-opacity="0.161"/>
      <feComposite operator="in" in2="blur-2"/>
      <feComposite in="SourceGraphic"/>
    </filter>
    <filter id="Rectangle_45" x="26.433" y="11.143" width="22" height="21" filterUnits="userSpaceOnUse">
      <feOffset dy="3" input="SourceAlpha"/>
      <feGaussianBlur stdDeviation="3" result="blur-3"/>
      <feFlood flood-opacity="0.161"/>
      <feComposite operator="in" in2="blur-3"/>
      <feComposite in="SourceGraphic"/>
    </filter>
    <filter id="Rectangle_46" x="34.433" y="10.143" width="21" height="22" filterUnits="userSpaceOnUse">
      <feOffset dy="3" input="SourceAlpha"/>
      <feGaussianBlur stdDeviation="3" result="blur-4"/>
      <feFlood flood-opacity="0.161"/>
      <feComposite operator="in" in2="blur-4"/>
      <feComposite in="SourceGraphic"/>
    </filter>
    <filter id="Rectangle_47" x="42.433" y="11.143" width="22" height="21" filterUnits="userSpaceOnUse">
      <feOffset dy="3" input="SourceAlpha"/>
      <feGaussianBlur stdDeviation="3" result="blur-5"/>
      <feFlood flood-opacity="0.161"/>
      <feComposite operator="in" in2="blur-5"/>
      <feComposite in="SourceGraphic"/>
    </filter>
  </defs>
  <g id="fridge" transform="translate(3.433 -877.857)">
    <path id="Path_83" data-name="Path 83" d="M14.938,0C20.085-.129,63,0,63,0a7.145,7.145,0,0,1,7,7.281v93.61a7.145,7.145,0,0,1-7,7.281s-43.643.024-47.107.036S.375,103.379,0,101.86s-.75-89.585,0-91.8S9.791.133,14.938,0Z" transform="translate(-3 877.913)" fill="rgba(148,32,28,0.86)"/>
    <rect id="Rectangle_43" data-name="Rectangle 43" width="61" height="108" rx="7" transform="translate(6 878)" fill="#e46563"/>
    <rect id="Rectangle_42" data-name="Rectangle 42" width="52" height="99" rx="6" transform="translate(12 883)" fill="rgba(180,49,45,0.85)"/>
    <g transform="matrix(1, 0, 0, 1, -3.43, 877.86)" filter="url(#Path_84)">
      <path id="Path_84-2" data-name="Path 84" d="M2,.315l22,.713c1.1,0,2.6.931,2.6,2.08h0c0,1.149-1.492,2.08-2.6,2.08l-22,.7A1.771,1.771,0,0,1,0,4.148V2.068A1.779,1.779,0,0,1,2,.315Z" transform="translate(18.43 35.55)" fill="#fff"/>
    </g>
    <g id="Group_15" data-name="Group 15" transform="translate(24 893.597)">
      <g transform="matrix(1, 0, 0, 1, -27.43, -15.74)" filter="url(#Rectangle_44)">
        <rect id="Rectangle_44-2" data-name="Rectangle 44" width="4" height="4" transform="translate(27.43 16.14)" fill="#fff"/>
      </g>
      <g transform="matrix(1, 0, 0, 1, -27.43, -15.74)" filter="url(#Rectangle_45)">
        <rect id="Rectangle_45-2" data-name="Rectangle 45" width="4" height="3" transform="translate(35.43 17.14)" fill="#fff"/>
      </g>
      <g transform="matrix(1, 0, 0, 1, -27.43, -15.74)" filter="url(#Rectangle_46)">
        <rect id="Rectangle_46-2" data-name="Rectangle 46" width="3" height="4" transform="translate(43.43 16.14)" fill="#fff"/>
      </g>
      <g transform="matrix(1, 0, 0, 1, -27.43, -15.74)" filter="url(#Rectangle_47)">
        <g id="Rectangle_47-2" data-name="Rectangle 47" transform="translate(51.43 17.14)" fill="none" stroke="#fff" stroke-width="1">
          <rect width="4" height="3" stroke="none"/>
          <rect x="0.5" y="0.5" width="3" height="2" fill="none"/>
        </g>
      </g>
    </g>
  </g>
</svg>
