<svg xmlns="http://www.w3.org/2000/svg" width="22.453" height="34.675" viewBox="0 0 22.453 34.675">
  <path id="Path_81" data-name="Path 81" d="M25.518,14.086H17.674L21.488,1.327a1.143,1.143,0,0,0-.5-1.216.852.852,0,0,0-1.136.283L4.213,18.815a1.223,1.223,0,0,0-.123,1.151.936.936,0,0,0,.846.622H12.78L8.966,33.347a1.143,1.143,0,0,0,.5,1.216.836.836,0,0,0,.414.112.888.888,0,0,0,.722-.394L26.24,15.859a1.223,1.223,0,0,0,.123-1.151A.936.936,0,0,0,25.518,14.086Z" transform="translate(-4 0)" fill="#202227"/>
</svg>
